<?xml version="1.0" encoding="UTF-8"?>
<svg xmlns="http://www.w3.org/2000/svg" xmlns:xlink="http://www.w3.org/1999/xlink" width="25px" height="25px" viewBox="0 0 25 25" version="1.1">
<g id="surface1">
<path style=" stroke:none;fill-rule:nonzero;fill:rgb(100%,5.882353%,30.19608%);fill-opacity:1;" d="M 17.417969 4.164062 L 14.203125 4.164062 L 13.179688 13.667969 L 14.203125 22.554688 L 17.417969 22.554688 Z M 17.417969 4.164062 "/>
<path style=" stroke:none;fill-rule:nonzero;fill:rgb(100%,30.980393%,40.392157%);fill-opacity:1;" d="M 10.988281 4.164062 L 9.964844 13.667969 L 10.988281 22.554688 L 14.203125 22.554688 L 14.203125 4.164062 Z M 10.988281 4.164062 "/>
<path style=" stroke:none;fill-rule:nonzero;fill:rgb(0%,23.921569%,65.882355%);fill-opacity:1;" d="M 5.015625 4.515625 L 2.507812 4.515625 L 1.488281 13.535156 L 2.507812 22.554688 L 5.015625 22.554688 L 6.035156 13.535156 Z M 5.015625 4.515625 "/>
<path style=" stroke:none;fill-rule:nonzero;fill:rgb(18.431373%,56.862748%,92.941177%);fill-opacity:1;" d="M 0 4.515625 L 2.507812 4.515625 L 2.507812 22.554688 L 0 22.554688 Z M 0 4.515625 "/>
<path style=" stroke:none;fill-rule:nonzero;fill:rgb(83.529413%,40.784314%,11.764706%);fill-opacity:1;" d="M 10.988281 2.445312 L 8 2.445312 L 6.980469 12.601562 L 8 22.554688 L 10.988281 22.554688 L 10.988281 10.882812 L 10.476562 10.117188 L 10.988281 9.351562 Z M 10.988281 2.445312 "/>
<path style=" stroke:none;fill-rule:nonzero;fill:rgb(100%,60.000002%,20%);fill-opacity:1;" d="M 5.015625 2.445312 L 5.015625 9.351562 L 5.523438 10.117188 L 5.015625 10.882812 L 5.015625 22.554688 L 8 22.554688 L 8 2.445312 Z M 5.015625 2.445312 "/>
<path style=" stroke:none;fill-rule:nonzero;fill:rgb(59.607846%,20%,0%);fill-opacity:1;" d="M 6.84375 4.421875 L 9.15625 4.421875 L 9.15625 5.953125 L 6.84375 5.953125 Z M 6.84375 4.421875 "/>
<path style=" stroke:none;fill-rule:nonzero;fill:rgb(59.607846%,20%,0%);fill-opacity:1;" d="M 6.84375 6.613281 L 9.15625 6.613281 L 9.15625 8.144531 L 6.84375 8.144531 Z M 6.84375 6.613281 "/>
<path style=" stroke:none;fill-rule:nonzero;fill:rgb(40.000001%,20%,0%);fill-opacity:1;" d="M 10.988281 9.351562 L 8 9.351562 L 6.980469 10.117188 L 8 10.882812 L 10.988281 10.882812 Z M 10.988281 9.351562 "/>
<path style=" stroke:none;fill-rule:nonzero;fill:rgb(59.607846%,20%,0%);fill-opacity:1;" d="M 5.015625 9.351562 L 8 9.351562 L 8 10.882812 L 5.015625 10.882812 Z M 5.015625 9.351562 "/>
<path style=" stroke:none;fill-rule:nonzero;fill:rgb(100%,72.941178%,0%);fill-opacity:1;" d="M 3.273438 6.832031 L 2.507812 6.832031 L 1.996094 13.359375 L 2.507812 20.238281 L 3.273438 20.238281 Z M 3.273438 6.832031 "/>
<path style=" stroke:none;fill-rule:nonzero;fill:rgb(99.215686%,87.843138%,61.176473%);fill-opacity:1;" d="M 1.742188 6.832031 L 2.507812 6.832031 L 2.507812 20.238281 L 1.742188 20.238281 Z M 1.742188 6.832031 "/>
<path style=" stroke:none;fill-rule:nonzero;fill:rgb(100%,72.941178%,0%);fill-opacity:1;" d="M 15.859375 16.878906 L 14.203125 16.878906 L 13.179688 17.644531 L 14.203125 18.410156 L 15.859375 18.410156 Z M 15.859375 16.878906 "/>
<path style=" stroke:none;fill-rule:nonzero;fill:rgb(100%,72.941178%,0%);fill-opacity:1;" d="M 15.859375 19.070312 L 14.203125 19.070312 L 13.179688 19.835938 L 14.203125 20.601562 L 15.859375 20.601562 Z M 15.859375 19.070312 "/>
<path style=" stroke:none;fill-rule:nonzero;fill:rgb(99.215686%,87.843138%,61.176473%);fill-opacity:1;" d="M 12.546875 16.878906 L 14.203125 16.878906 L 14.203125 18.410156 L 12.546875 18.410156 Z M 12.546875 16.878906 "/>
<path style=" stroke:none;fill-rule:nonzero;fill:rgb(99.215686%,87.843138%,61.176473%);fill-opacity:1;" d="M 12.546875 19.070312 L 14.203125 19.070312 L 14.203125 20.601562 L 12.546875 20.601562 Z M 12.546875 19.070312 "/>
<path style=" stroke:none;fill-rule:nonzero;fill:rgb(100%,55.686277%,0%);fill-opacity:1;" d="M 21.832031 5.582031 L 19.9375 5.957031 L 19.332031 6.832031 L 19.882812 14.53125 L 22.207031 21.292969 L 23.105469 21.878906 L 25 21.5 Z M 21.832031 5.582031 "/>
<path style=" stroke:none;fill-rule:nonzero;fill:rgb(100%,72.941178%,0%);fill-opacity:1;" d="M 16.542969 6.632812 L 19.707031 22.554688 L 21.605469 22.175781 L 22.207031 21.292969 L 19.332031 6.832031 L 18.4375 6.257812 Z M 16.542969 6.632812 "/>
<path style=" stroke:none;fill-rule:nonzero;fill:rgb(99.215686%,87.843138%,61.176473%);fill-opacity:1;" d="M 21.605469 22.175781 L 18.4375 6.253906 L 19.9375 5.957031 L 23.105469 21.878906 Z M 21.605469 22.175781 "/>
</g>
</svg>
